@startuml
title
    <img:assets/logos/calypso.svg{scale=0.2}>

    Terminal Reader API 3.0.+ (2026-07-08)
end title

' == THEME (class) ==

'Couleurs issues de : https://htmlcolorcodes.com/fr/tableau-de-couleur/tableau-de-couleur-design-plat/
!define C_GREY1 F8F9F9
!define C_GREY2 F2F3F4
!define C_GREY3 E5E7E9
!define C_GREY4 D7DBDD
!define C_GREY5 CACFD2
!define C_GREY6 BDC3C7
!define C_LINK 3498DB
!define C_USE 27AE60
!define C_THROW 2C3E50

' -- Styles that don't work with new version of plantuml --
skinparam stereotypeABorderColor #A9DCDF
skinparam stereotypeIBorderColor #B4A7E5
skinparam stereotypeCBorderColor #ADD1B2
skinparam stereotypeEBorderColor #EB937F
' -- END --

skinparam ClassBorderThickness 2
skinparam ArrowThickness 2

' Yellow
skinparam ClassBackgroundColor #FEFECE
skinparam ClassBorderColor #D4AC0D
' Red
skinparam ClassBackgroundColor<<red>> #FDEDEC
skinparam ClassBorderColor<<red>> #E74C3C
hide <<red>> stereotype
' Purple
skinparam ClassBackgroundColor<<purple>> #F4ECF7
skinparam ClassBorderColor<<purple>> #8E44AD
hide <<purple>> stereotype
' blue
skinparam ClassBackgroundColor<<blue>> #EBF5FB
skinparam ClassBorderColor<<blue>> #3498DB
hide <<blue>> stereotype
' Green
skinparam ClassBackgroundColor<<green>> #E9F7EF
skinparam ClassBorderColor<<green>> #27AE60
hide <<green>> stereotype
' Grey
skinparam ClassBackgroundColor<<grey>> #EAECEE
skinparam ClassBorderColor<<grey>> #2C3E50
hide <<grey>> stereotype

' == CONTENT ==

legend top
    * __External public API references__
    *** <back:yellow>**Calypsonet Terminal Reader Definitions API**</back>
    * __Text__
    *** <color:blue><b>New element added since the last version
    *** <color:red><s><b>Element marked as deprecated since the last version
    *** <s><b>Element marked as deprecated
    *** <color:grey><b>Work in progress...
    * __Object__
    *** <back:#EBF5FB><color:#3498DB><b>Factory or interface provided by the factory
    *** <back:#FEFECE><color:#D4AC0D><b>Interface that cannot be instantiated directly by the factory
    *** <back:#FDEDEC><color:#E74C3C><b>SPI (Service Provider Interface) to be provided by the end-user
    *** <back:#E9F7EF><color:#27AE60><b>Data, constants, enumeration or error
end legend

package "reader" as reader {

class "ReaderApiProperties" as ApiProperties <<constants>> <<green>> {
    +const VERSION: String = "3.0"
}
interface "ReaderApiFactory" as ReaderApiFactory <<blue>> {
    +<color:blue>getCardReaderProvider() → CardReaderProvider

    +<color:blue>createSingleCardSelectionManager() → SingleCardSelectionManager
    +<color:blue>createSequentialCardSelectionManager() → SequentialCardSelectionManager
    +<color:blue>createMultichannelCardSelectionManager() → MultichannelCardSelectionManager
}

interface "<color:blue>CardReaderProvider" as CardReaderProvider <<blue>> {
    +<color:blue>getReaderNames() → Set<String>
    +<color:blue>getReaders() → Set<CardReader>
    +<color:blue>getReader(readerName: String) → CardReader?
    +<color:blue>findReader(readerNameRegex: String) → CardReader?
}

' SERVICE
interface CardReader {
    +getName() → String
    +isContactless() → Boolean

    +isCardPresent() → Boolean
    {method} <size:10><color:#7F8C8D>    ⚠ errors: ReaderCommunication</color></size>
}
interface "ObservableCardReader" as ObservableCardReader extends CardReader {
    +<color:blue>startCardDetection(settings: CardDetectionSettings, eventHandler: CardReaderEventHandler) → Unit
    +stopCardDetection() → Unit

    +<color:blue>endCardProcessing() → Unit

    +<color:blue>clearScheduledCardSelectionScenario() → Unit
}
class "<color:blue>CardDetectionSettings" as CardDetectionSettings <<data>> <<green>> {
    +<color:blue>val detectionMode: DetectionMode = DetectionMode.REPEATING
    +{field} <color:blue>val rfTechnologies: Set<<back:yellow>RfTechnology</back>> = setOf(<back:yellow>RfTechnology.ISO_14443_AB</back>)
    +{field} <color:blue>val ecpFrame: ByteArray? = null
}
enum DetectionMode <<green>> {
    +REPEATING
    +<color:blue>SINGLE_SHOT
}
class "CardReaderEvent" as CardReaderEvent <<data>> <<green>> {
    +val readerName: String
    +val type: CardReaderEventType
    +val scheduledCardSelectionsResponse: ScheduledCardSelectionsResponse?
}
enum "<color:blue>CardReaderEventType" as CardReaderEventType <<green>> {
    +CARD_INSERTED
    +CARD_MATCHED
    +CARD_REMOVED
    +<color:blue>READER_UNREGISTERED
}
' SPI
package "spi" as readerSpi {
    interface "<color:blue>CardReaderEventHandler" as CardReaderEventHandler <<red>> {
        +<color:blue>onReaderEvent(cardReaderEvent: CardReaderEvent) → Unit
        +<color:blue>onReaderError(context: String, readerName: String, error: Any) → Unit
    }
}

' SELECTION
package "selection" as selectionApi {
    ' Selection
    interface CardSelectionManager {
        +<color:blue>prepareSelectionCase(selectionCaseId: Int, cardSelector: CardSelector, cardSelectionExtension: CardSelectionExtension) → Self

        +exportCardSelectionScenario() → String
        +<color:blue>importCardSelectionScenario(cardSelectionScenario: String) → Self

        +exportProcessedCardSelectionScenario() → String
    }
    interface "<color:blue>SingleCardSelectionManager" as SingleCardSelectionManager <<blue>> extends CardSelectionManager {
        +<color:blue>processCardSelectionScenario(reader: CardReader) → SingleCardSelectionResult
        {method} <size:10><color:#7F8C8D>    ⚠ errors: ReaderCommunication, CardCommunication, InvalidCardResponse</color></size>

        +<color:blue>scheduleCardSelectionScenario(observableCardReader: ObservableCardReader, cardPresenceNotificationPolicy: CardPresenceNotificationPolicy) → Unit
        +<color:blue>parseScheduledCardSelectionsResponse(scheduledCardSelectionsResponse: ScheduledCardSelectionsResponse) → SingleCardSelectionResult
        {method} <size:10><color:#7F8C8D>    ⚠ errors: InvalidCardResponse</color></size>

        +<color:blue>importProcessedCardSelectionScenario(processedCardSelectionScenario: String) → SingleCardSelectionResult
        {method} <size:10><color:#7F8C8D>    ⚠ errors: InvalidCardResponse</color></size>
    }
    interface "<color:blue>SequentialCardSelectionManager" as SequentialCardSelectionManager <<blue>> extends CardSelectionManager {
        +<color:blue>processCardSelectionScenario(reader: CardReader) → SequentialCardSelectionResult
        {method} <size:10><color:#7F8C8D>    ⚠ errors: ReaderCommunication, CardCommunication, InvalidCardResponse</color></size>

        +<color:blue>scheduleCardSelectionScenario(observableCardReader: ObservableCardReader, cardPresenceNotificationPolicy: CardPresenceNotificationPolicy) → Unit
        +<color:blue>parseScheduledCardSelectionsResponse(scheduledCardSelectionsResponse: ScheduledCardSelectionsResponse) → SequentialCardSelectionResult
        {method} <size:10><color:#7F8C8D>    ⚠ errors: InvalidCardResponse</color></size>

        +<color:blue>importProcessedCardSelectionScenario(processedCardSelectionScenario: String) → SequentialCardSelectionResult
        {method} <size:10><color:#7F8C8D>    ⚠ errors: InvalidCardResponse</color></size>
    }
    interface "<color:blue>MultichannelCardSelectionManager" as MultichannelCardSelectionManager <<blue>> extends CardSelectionManager {
        +<color:blue>processCardSelectionScenario(reader: CardReader, channelSelectionPolicy: ChannelSelectionPolicy) → MultichannelCardSelectionResult
        {method} <size:10><color:#7F8C8D>    ⚠ errors: ReaderCommunication, CardCommunication, InvalidCardResponse</color></size>

        +<color:blue>importProcessedCardSelectionScenario(processedCardSelectionScenario: String) → MultichannelCardSelectionResult
        {method} <size:10><color:#7F8C8D>    ⚠ errors: InvalidCardResponse</color></size>
    }
    enum "<color:blue>CardPresenceNotificationPolicy" as CardPresenceNotificationPolicy <<green>> {
        +<color:blue>ALWAYS
        +<color:blue>MATCHED_ONLY
    }
    enum "<color:blue>ChannelSelectionPolicy" as ChannelSelectionPolicy <<green>> {
        +<color:blue>ALLOW_BASIC_CHANNEL
        +<color:blue>LOGICAL_CHANNEL_ONLY
    }
    interface "CardSelector" as CardSelector <<sealed>> {
    }
    class "BasicCardSelector" as BasicCardSelector <<data>> <<green>> implements CardSelector {
        +<color:blue>val cardType: <back:yellow>CardType</back>? = null
        +val powerOnDataRegex: String? = null
    }
    class "IsoCardSelector" as IsoCardSelector <<data>> <<green>> implements CardSelector {
        +<color:blue>val cardType: <back:yellow>CardType</back>? = null
        +val powerOnDataRegex: String? = null
        +val dfName: ByteArray? = null
        +val fileOccurrence: FileOccurrence = FileOccurrence.FIRST
        +val fileControlInformation: FileControlInformation = FileControlInformation.FCI
    }
    enum "FileOccurrence" as FileOccurrence <<green>> {
        +FIRST
        +LAST
        +NEXT
        +PREVIOUS
    }
    enum "FileControlInformation" as FileControlInformation <<green>> {
        +FCI
        +FCP
        +FMD
        +NO_RESPONSE
    }

    ' Card Extension SPI
    package "spi" as selectionSpi {
        interface "CardSelectionExtension" as CardSelectionExtension <<red>> {
        }
        interface "SmartCard" as SmartCard <<red>> {
            +getPowerOnData() → String?
            +<color:blue>isActive() → Boolean
        }
        interface "IsoSmartCard" as IsoSmartCard <<red>> extends SmartCard {
            +getSelectApplicationResponse() → ByteArray?
            +<color:blue>isBasicChannel() → Boolean
        }
    }
    class "<color:blue>SingleCardSelectionResult" as SingleCardSelectionResult <<data>> <<green>> {
        +<color:blue>val cardType: <back:yellow>CardType</back>
        +<color:blue>val selectionCaseId: Int?
        +<color:blue>val smartCard: SmartCard?
    }
    class "<color:blue>SequentialCardSelectionResult" as SequentialCardSelectionResult <<data>> <<green>> {
        +<color:blue>val cardType: <back:yellow>CardType</back>
        +<color:blue>val smartCards: Map<Int, SmartCard>
        +<color:blue>val activeSelectionCaseId: Int?
    }
    class "<color:blue>MultichannelCardSelectionResult" as MultichannelCardSelectionResult <<data>> <<green>> {
        +<color:blue>val cardType: <back:yellow>CardType</back>
        +<color:blue>val smartCards: Map<Int, SmartCard>
    }
    interface ScheduledCardSelectionsResponse {
    }
}

' TRANSACTION
package "transaction" as transactionApi {
    package "spi" as transactionSpi {
        interface "CardTransactionManager" as CardTransactionManager <<red>> {
            +<color:blue>processCommands() → Unit
            {method} <size:10><color:#7F8C8D>    ⚠ errors: ReaderCommunication, CardCommunication, InvalidCardResponse</color></size>
        }
        interface "<color:blue>IsoCardTransactionManager" as IsoCardTransactionManager <<red>> extends CardTransactionManager {
            +<color:blue>asMultichannelCardTransactionManager() → MultichannelCardTransactionManager
        }
        interface "<color:blue>MultichannelCardTransactionManager" as MultichannelCardTransactionManager <<red>> extends CardTransactionManager {
            +<color:blue>processCommandsAndCloseChannel() → Unit
            {method} <size:10><color:#7F8C8D>    ⚠ errors: ReaderCommunication, CardCommunication, InvalidCardResponse</color></size>
            +<color:blue>closeChannel() → Unit
            {method} <size:10><color:#7F8C8D>    ⚠ errors: ReaderCommunication, CardCommunication</color></size>
        }
    }
}

' Errors
exception "ReaderCommunication\nCardCommunication\nInvalidCardResponse" as errors <<error>> <<green>> {
    +val message: String
    +val cause: Any?
}

}

' Associations

ObservableCardReader ..> CardDetectionSettings #C_USE : use >
ObservableCardReader ..> CardReaderEventHandler #C_USE : use >

CardDetectionSettings ..> DetectionMode #C_USE : use >

CardReaderEvent ..> CardReaderEventType #C_USE : use >
CardReaderEvent ...> ScheduledCardSelectionsResponse #C_USE : use >

CardReaderEventHandler ..> CardReaderEvent #C_USE : use >

CardReaderProvider ..> CardReader #C_LINK : provide >

SingleCardSelectionResult ..> SmartCard #C_USE : use >

SequentialCardSelectionResult ..> SmartCard #C_USE : use >

MultichannelCardSelectionResult ..> SmartCard #C_USE : use >

IsoCardSelector ..> FileOccurrence #C_USE : use >
IsoCardSelector ..> FileControlInformation #C_USE : use >

CardSelectionManager .up...> CardSelector #C_USE : use >
CardSelectionManager ..> CardSelectionExtension #C_USE : use >

SingleCardSelectionManager ...> SingleCardSelectionResult #C_LINK : provide >
SingleCardSelectionManager .up.....> CardReader #C_USE : use >
SingleCardSelectionManager .up....> ScheduledCardSelectionsResponse #C_USE : use >
SingleCardSelectionManager ..> CardPresenceNotificationPolicy #C_USE : use >

SequentialCardSelectionManager ...> SequentialCardSelectionResult #C_LINK : provide >
SequentialCardSelectionManager .up.....> CardReader #C_USE : use >
SequentialCardSelectionManager .up....> ScheduledCardSelectionsResponse #C_USE : use >
SequentialCardSelectionManager ..> CardPresenceNotificationPolicy #C_USE : use >

MultichannelCardSelectionManager ...> MultichannelCardSelectionResult #C_LINK : provide >
MultichannelCardSelectionManager .up.....> CardReader #C_USE : use >
MultichannelCardSelectionManager ..> ChannelSelectionPolicy #C_USE : use >

IsoCardTransactionManager .right.> MultichannelCardTransactionManager #C_LINK : cast to >

' == LAYOUT ==

ApiProperties -[hidden]- errors
ReaderApiFactory -[hidden]right- CardReaderProvider

' == STYLE ==

package reader #C_GREY1 {}
package reader.readerSpi #C_GREY2 {}
package reader.selectionApi #C_GREY2 {}
package reader.selectionApi.selectionSpi #C_GREY3 {}
package reader.transactionApi #C_GREY2 {}
package reader.transactionApi.transactionSpi #C_GREY3 {}

@enduml